<svg width="40" height="40" viewBox="0 0 40 40" fill="none" xmlns="http://www.w3.org/2000/svg">
<path d="M27.5 10V11.25M27.5 16.25V17.5M27.5 22.5V23.75M27.5 28.75V30M12.5 21.25H21.25M12.5 25H17.5M5.625 8.75C4.59 8.75 3.75 9.59 3.75 10.625V15.6683C4.51124 16.1066 5.14354 16.7378 5.5832 17.4982C6.02285 18.2587 6.25434 19.1216 6.25434 20C6.25434 20.8784 6.02285 21.7413 5.5832 22.5018C5.14354 23.2622 4.51124 23.8934 3.75 24.3317V29.375C3.75 30.41 4.59 31.25 5.625 31.25H34.375C35.41 31.25 36.25 30.41 36.25 29.375V24.3317C35.4888 23.8934 34.8565 23.2622 34.4168 22.5018C33.9771 21.7413 33.7457 20.8784 33.7457 20C33.7457 19.1216 33.9771 18.2587 34.4168 17.4982C34.8565 16.7378 35.4888 16.1066 36.25 15.6683V10.625C36.25 9.59 35.41 8.75 34.375 8.75H5.625Z" stroke="#1E1E1E" stroke-width="1.5" stroke-linecap="round" stroke-linejoin="round"/>
</svg>
