<svg width="40" height="40" viewBox="0 0 40 40" fill="none" xmlns="http://www.w3.org/2000/svg">
<path d="M20 6.6665C21.7681 6.6665 23.4638 7.36888 24.714 8.61913C25.9642 9.86937 26.6666 11.5651 26.6666 13.3332C26.6666 15.1013 25.9642 16.797 24.714 18.0472C23.4638 19.2975 21.7681 19.9998 20 19.9998C18.2318 19.9998 16.5362 19.2975 15.2859 18.0472C14.0357 16.797 13.3333 15.1013 13.3333 13.3332C13.3333 11.5651 14.0357 9.86937 15.2859 8.61913C16.5362 7.36888 18.2318 6.6665 20 6.6665ZM20 23.3332C27.3666 23.3332 33.3333 26.3165 33.3333 29.9998V33.3332H6.66663V29.9998C6.66663 26.3165 12.6333 23.3332 20 23.3332Z" fill="black"/>
</svg>
