<svg width="637" height="398" viewBox="0 0 637 398" fill="none" xmlns="http://www.w3.org/2000/svg">
<path d="M112.6 82.8C124.2 82.8 133.8 91.2 133.4 104C133 116 123 126.8 109.4 126.8C92.2 126.8 82.6 112.8 83.8 93.6C85.4 55.2 123.8 26 163.4 20L165.8 25.2C129.8 28.8 94.6 56.8 92.6 89.6C92.2 92.8 92.6 95.6 93 98.4C95 90 102.6 82.8 112.6 82.8ZM302.156 0.399991C320.956 0.399991 340.556 7.99999 340.556 22C340.556 30.8 334.156 37.2 324.556 37.2C306.556 37.2 307.356 9.59999 279.756 9.59999C247.356 9.59999 228.956 48 217.756 81.2L200.956 130.8H248.156L243.356 144H196.556L143.356 300.8C118.156 374.8 70.1562 397.6 33.3562 397.6C15.7562 397.6 0.956239 390.4 0.956239 378.4C0.956239 370.4 6.95625 364.4 15.3562 364.4C32.1562 364.4 34.1562 387.2 55.7562 387.2C84.5562 387.2 98.5562 355.2 112.156 314.8L170.156 144H143.756L144.956 141.6L173.756 132.4L186.956 94C212.156 19.6 269.356 0.399991 302.156 0.399991ZM272.481 301.2C235.281 301.2 214.481 272.8 225.681 229.2C236.481 177.2 286.881 124.4 334.081 124.4C370.481 124.4 391.281 152.4 380.481 197.6C369.681 252.4 318.881 301.2 272.481 301.2ZM273.681 296C308.081 296 344.081 236.8 352.481 193.2C360.881 158.8 358.081 129.6 333.681 129.6C298.481 129.6 262.481 191.6 254.081 232.8C245.681 266 248.481 296 273.681 296ZM448.263 301.2C411.063 301.2 390.262 272.8 401.463 229.2C412.263 177.2 462.663 124.4 509.863 124.4C546.263 124.4 567.063 152.4 556.263 197.6C545.463 252.4 494.663 301.2 448.263 301.2ZM449.463 296C483.863 296 519.863 236.8 528.263 193.2C536.663 158.8 533.863 129.6 509.463 129.6C474.263 129.6 438.263 191.6 429.863 232.8C421.463 266 424.263 296 449.463 296ZM606.044 20C622.444 20 636.044 36.4 636.044 61.6C636.044 104.4 606.844 124.8 578.044 132.4V127.2C602.444 120.4 628.444 100.8 628.444 64C628.444 56.4 626.844 49.6 623.644 43.6C622.444 52.4 615.644 60.4 604.444 60.4C592.844 60.4 584.044 51.6 584.044 41.2C584.044 30 592.444 20 606.044 20Z" fill="#0C0E02"/>
</svg>
