
<svg width="140" height="141" viewBox="0 0 140 141" fill="none" xmlns="http://www.w3.org/2000/svg">
<path d="M69.9942 105.182L56.085 119.091L69.9942 133" stroke="black" stroke-width="15" stroke-linecap="round" stroke-linejoin="round"/>
<path d="M56.0869 119.088H118.679C120.894 118.974 123.051 118.331 124.967 117.214C126.884 116.096 128.506 114.536 129.697 112.665C130.888 110.793 131.614 108.663 131.815 106.453C132.015 104.244 131.684 102.018 130.849 99.9626L127.024 93.0079M45.9053 63.4507L40.8145 44.4507L21.8145 49.5415" stroke="black" stroke-width="15" stroke-linecap="round" stroke-linejoin="round"/>
<path d="M40.8157 44.4507L9.51985 98.6551C8.51171 100.631 7.99065 102.819 8.00013 105.037C8.0096 107.255 8.54935 109.438 9.57433 111.405C10.5993 113.372 12.0798 115.065 13.8923 116.344C15.7048 117.622 17.7967 118.448 19.9935 118.754L27.9288 118.921M94.0882 63.4507L113.088 68.5415L118.179 49.5415" stroke="black" stroke-width="15" stroke-linecap="round" stroke-linejoin="round"/>
<path d="M113.089 68.5432L81.7935 14.3388C80.5863 12.478 78.9515 10.9329 77.0256 9.83247C75.0997 8.73202 72.9385 8.10813 70.7225 8.01284C68.5064 7.91756 66.2997 8.35365 64.2864 9.28472C62.2732 10.2158 60.5118 11.6149 59.1492 13.3652L55.0391 20.1529" stroke="black" stroke-width="15" stroke-linecap="round" stroke-linejoin="round"/>

</svg>
