<svg width="46" height="50" viewBox="0 0 46 50" fill="none" xmlns="http://www.w3.org/2000/svg">
<path d="M41.2698 25.3091C41.089 25.2042 40.8904 25.1038 40.6851 25.0056C40.8904 24.9074 41.089 24.807 41.2698 24.7021C42.2932 24.1202 43.1913 23.3417 43.9126 22.4113C44.6339 21.4809 45.164 20.417 45.4725 19.2809C45.7809 18.1448 45.8616 16.9589 45.7099 15.7915C45.5581 14.624 45.177 13.4982 44.5883 12.4787C43.9997 11.4592 43.2152 10.5661 42.2801 9.85105C41.3449 9.13595 40.2775 8.6129 39.1394 8.31199C38.0013 8.01109 36.8149 7.93828 35.6485 8.09776C34.4821 8.25724 33.3588 8.64586 32.3432 9.24124C32.1624 9.34613 31.975 9.46441 31.7897 9.59607C31.8076 9.37291 31.8187 9.14974 31.8187 8.92658C31.8187 6.5591 30.8783 4.28859 29.2042 2.61453C27.5301 0.940476 25.2596 0 22.8922 0C20.5247 0 18.2542 0.940476 16.5801 2.61453C14.9061 4.28859 13.9656 6.5591 13.9656 8.92658C13.9656 9.13635 13.9656 9.35952 13.9946 9.59607C13.8094 9.46887 13.6219 9.34613 13.4411 9.24124C12.4256 8.64586 11.3022 8.25724 10.1359 8.09776C8.96947 7.93828 7.78306 8.01109 6.64493 8.31199C5.5068 8.6129 4.43943 9.13595 3.50426 9.85105C2.5691 10.5661 1.78462 11.4592 1.19599 12.4787C0.60736 13.4982 0.226203 14.624 0.0744631 15.7915C-0.0772763 16.9589 0.00339969 18.1448 0.311846 19.2809C0.620293 20.417 1.15042 21.4809 1.8717 22.4113C2.59298 23.3417 3.49118 24.1202 4.51457 24.7021C4.69533 24.807 4.89395 24.9074 5.09926 25.0056C4.89395 25.1038 4.69533 25.2042 4.51457 25.3091C3.49118 25.8909 2.59298 26.6695 1.8717 27.5999C1.15042 28.5303 0.620293 29.5942 0.311846 30.7303C0.00339969 31.8664 -0.0772763 33.0523 0.0744631 34.2197C0.226203 35.3871 0.60736 36.513 1.19599 37.5325C1.78462 38.552 2.5691 39.445 3.50426 40.1601C4.43943 40.8752 5.5068 41.3983 6.64493 41.6992C7.78306 42.0001 8.96947 42.0729 10.1359 41.9134C11.3022 41.7539 12.4256 41.3653 13.4411 40.7699C13.6219 40.665 13.8094 40.5468 13.9946 40.4151C13.9767 40.6383 13.9656 40.8614 13.9656 41.0734C13.9656 43.4409 14.9061 45.7114 16.5801 47.3855C18.2542 49.0595 20.5247 50 22.8922 50C25.2596 50 27.5301 49.0595 29.2042 47.3855C30.8783 45.7114 31.8187 43.4409 31.8187 41.0734C31.8187 40.8636 31.8076 40.6405 31.7897 40.4151C31.975 40.5423 32.1624 40.665 32.3432 40.7699C33.6954 41.5533 35.2304 41.9659 36.7931 41.9661C37.5783 41.965 38.36 41.8615 39.1185 41.6581C40.8238 41.201 42.3553 40.2485 43.5193 38.921C44.6834 37.5935 45.4275 35.9506 45.6578 34.2001C45.8881 32.4496 45.5941 30.6702 44.813 29.0868C44.032 27.5034 42.7989 26.1872 41.2698 25.3046V25.3091ZM22.8922 31.2542C21.6563 31.2542 20.4482 30.8877 19.4206 30.2011C18.393 29.5145 17.5921 28.5386 17.1192 27.3968C16.6463 26.255 16.5225 24.9986 16.7636 23.7865C17.0047 22.5744 17.5998 21.461 18.4737 20.5871C19.3476 19.7133 20.461 19.1181 21.6731 18.877C22.8852 18.6359 24.1416 18.7597 25.2834 19.2326C26.4252 19.7056 27.4011 20.5065 28.0877 21.534C28.7743 22.5616 29.1408 23.7697 29.1408 25.0056C29.1408 26.6628 28.4824 28.2522 27.3106 29.424C26.1388 30.5959 24.5494 31.2542 22.8922 31.2542Z" fill="black"/>
</svg>
