<?xml version="1.0" encoding="UTF-8"?><svg id="Layer_1" xmlns="http://www.w3.org/2000/svg" viewBox="0 0 158.7 99.31"><path d="m32.9,25.6c-.1,2.8-2.5,5.2-5.5,5.2-3.9,0-6.2-3.5-5.6-8.5.7-9.7,9.7-16.3,19.3-17.5l.5,1.1c-8.7.7-17.3,7.2-18,15.7-.1.9-.1,1.7,0,2.5.6-1.8,2.4-3.4,4.6-3.4,2.7,0,4.9,2,4.7,4.9Z" style="fill:#dffe02;"/><path d="m84.91,5.4c0,2.2-1.6,3.8-4,3.8-4.5,0-4.3-6.9-11.2-6.9-8.1,0-12.7,9.6-15.5,17.9l-4.2,12.4h11.8l-1.2,3.3h-11.7l-13.3,39.2c-6.3,18.5-18.3,24.2-27.5,24.2-4.4,0-8.1-1.8-8.1-4.8,0-2,1.5-3.5,3.6-3.5,4.2,0,4.7,5.7,10.1,5.7,7.2,0,10.7-8,14.1-18.1l14.5-42.7h-6.6l.3-.6,7.2-2.3,3.3-9.6C52.8,4.8,67.1,0,75.3,0c4.7,0,9.6,1.9,9.6,5.4Z" style="fill:#dffe02;"/><path d="m56.2,57.2c2.7-13,15.3-26.2,27.1-26.2,9.1,0,14.3,7,11.6,18.3-2.7,13.7-15.4,25.9-27,25.9-9.3,0-14.5-7.1-11.7-18Zm31.7-9c2.1-8.6,1.4-15.9-4.7-15.9-8.8,0-17.8,15.5-19.9,25.8-2.1,8.3-1.4,15.8,4.9,15.8,8.6,0,17.6-14.8,19.7-25.7Z" style="fill:#dffe02;"/><path d="m100.1,57.2c2.7-13,15.3-26.2,27.1-26.2,9.1,0,14.3,7,11.6,18.3-2.7,13.7-15.4,25.9-27,25.9-9.3,0-14.5-7.1-11.7-18Zm31.7-9c2.1-8.6,1.4-15.9-4.7-15.9-8.8,0-17.8,15.5-19.9,25.8-2.1,8.3-1.4,15.8,4.9,15.8,8.6,0,17.6-14.8,19.7-25.7Z" style="fill:#dffe02;"/><path d="m158.7,15.3c0,10.7-7.3,15.8-14.5,17.7v-1.3c6.1-1.7,12.6-6.6,12.6-15.8,0-1.9-.4-3.6-1.2-5.1-.3,2.2-2,4.2-4.8,4.2s-5.1-2.2-5.1-4.8c0-2.8,2.1-5.3,5.5-5.3,4.1,0,7.5,4.1,7.5,10.4Z" style="fill:#dffe02;"/></svg>