<svg width="192" height="61" viewBox="0 0 192 61" fill="none" xmlns="http://www.w3.org/2000/svg">
<path d="M45.5 0.659999C48.32 0.659999 51.26 1.8 51.26 3.9C51.26 5.22 50.3 6.18 48.86 6.18C46.16 6.18 46.28 2.04 42.14 2.04C37.28 2.04 34.52 7.8 32.84 12.78L30.32 20.22H37.4L36.68 22.2H29.66L21.68 45.72C17.9 56.82 10.7 60.24 5.18 60.24C2.54 60.24 0.319998 59.16 0.319998 57.36C0.319998 56.16 1.22 55.26 2.48 55.26C5 55.26 5.3 58.68 8.54 58.68C12.86 58.68 14.96 53.88 17 47.82L25.7 22.2H21.74L21.92 21.84L26.24 20.46L28.22 14.7C32 3.54 40.58 0.659999 45.5 0.659999ZM41.0488 45.78C35.4688 45.78 32.3487 41.52 34.0288 34.98C35.6488 27.18 43.2088 19.26 50.2888 19.26C55.7488 19.26 58.8688 23.46 57.2488 30.24C55.6288 38.46 48.0088 45.78 41.0488 45.78ZM41.2288 45C46.3888 45 51.7888 36.12 53.0488 29.58C54.3088 24.42 53.8888 20.04 50.2288 20.04C44.9488 20.04 39.5488 29.34 38.2888 35.52C37.0288 40.5 37.4488 45 41.2288 45ZM67.4159 45.78C61.8359 45.78 58.7159 41.52 60.3959 34.98C62.0159 27.18 69.5759 19.26 76.6559 19.26C82.1159 19.26 85.2359 23.46 83.6159 30.24C81.9959 38.46 74.3759 45.78 67.4159 45.78ZM67.5959 45C72.7559 45 78.1559 36.12 79.4159 29.58C80.6759 24.42 80.2559 20.04 76.5959 20.04C71.3159 20.04 65.9159 29.34 64.6559 35.52C63.3959 40.5 63.8159 45 67.5959 45ZM101.343 5.1C98.8231 5.1 97.2631 6.42 97.2631 9.9V12H104.103V16.56H97.2631V45H91.5031V16.56H86.8831V12H91.5031V9.36C91.5031 3.24 95.0431 0.479997 100.383 0.479997C102.123 0.479997 103.443 0.779997 104.463 1.08V5.82C103.503 5.34 102.423 5.1 101.343 5.1ZM137.589 28.92V30.18H112.869C113.409 37.02 117.069 41.16 122.709 41.16C126.909 41.16 130.389 38.94 130.929 35.64H136.929C135.909 42 129.849 45.72 122.709 45.72C113.169 45.72 106.929 39.06 106.929 28.5C106.929 18.72 112.809 11.28 122.709 11.28C132.789 11.28 137.589 18.72 137.589 28.92ZM122.709 15.84C117.429 15.84 113.709 19.56 112.929 25.98H131.529C131.229 19.38 127.809 15.84 122.709 15.84ZM147.673 33.9C147.793 39.12 150.913 41.34 156.133 41.34C160.933 41.34 163.873 39.72 163.873 36.36C163.873 32.22 159.433 31.32 155.113 30.66C148.153 29.52 142.513 27.54 142.513 20.88C142.513 14.22 148.453 11.28 155.713 11.28C163.933 11.28 168.793 15.18 168.853 22.14H163.033C162.853 17.28 160.273 15.66 155.533 15.66C150.613 15.66 148.273 17.22 148.273 20.28C148.273 23.88 151.513 24.66 156.433 25.38C162.553 26.34 169.633 28.02 169.633 35.64C169.633 42.42 164.173 45.72 156.073 45.72C147.673 45.72 141.853 41.88 141.792 33.9H147.673ZM191.006 16.56H183.686V35.7C183.686 39.48 185.246 40.8 187.766 40.8C188.846 40.8 189.986 40.56 191.006 40.08V44.76C189.986 45.12 188.666 45.42 186.926 45.42C181.586 45.42 177.926 42.66 177.926 36.24V16.56H173.246V12H177.926V4.2H183.686V12H191.006V16.56Z" fill="white"/>
</svg>
