<svg width="50" height="40" viewBox="0 0 50 40" fill="none" xmlns="http://www.w3.org/2000/svg">
<path d="M37.5 32.1429C37.5 34.0373 36.7475 35.8541 35.4079 37.1936C34.0684 38.5332 32.2515 39.2857 30.3571 39.2857C27.2991 39.2857 24.3415 37.2924 23.3259 34.5491C23.1714 34.1074 23.1963 33.6228 23.3955 33.1993C23.5946 32.7759 23.952 32.4476 24.3908 32.2849C24.8295 32.1223 25.3146 32.1384 25.7416 32.3297C26.1686 32.5211 26.5034 32.8724 26.6741 33.308C27.1741 34.6585 28.7946 35.7143 30.3571 35.7143C31.3043 35.7143 32.2127 35.338 32.8825 34.6682C33.5523 33.9985 33.9286 33.0901 33.9286 32.1429C33.9286 31.1957 33.5523 30.2872 32.8825 29.6175C32.2127 28.9477 31.3043 28.5714 30.3571 28.5714H5.35714C4.88354 28.5714 4.42934 28.3833 4.09445 28.0484C3.75957 27.7135 3.57143 27.2593 3.57143 26.7857C3.57143 26.3121 3.75957 25.8579 4.09445 25.523C4.42934 25.1881 4.88354 25 5.35714 25H30.3571C32.2515 25 34.0684 25.7526 35.4079 27.0921C36.7475 28.4316 37.5 30.2485 37.5 32.1429ZM23.2143 14.2857C25.1087 14.2857 26.9255 13.5332 28.265 12.1936C29.6046 10.8541 30.3571 9.03726 30.3571 7.14286C30.3571 5.24845 29.6046 3.43164 28.265 2.09209C26.9255 0.752548 25.1087 0 23.2143 0C20.1562 0 17.1987 1.9933 16.183 4.73661C16.0285 5.17827 16.0535 5.66294 16.2526 6.08637C16.4518 6.5098 16.8092 6.83814 17.2479 7.00077C17.6867 7.1634 18.1717 7.14732 18.5987 6.95599C19.0257 6.76466 19.3606 6.41336 19.5312 5.97768C20.0312 4.62723 21.6518 3.57143 23.2143 3.57143C24.1615 3.57143 25.0699 3.9477 25.7397 4.61748C26.4094 5.28725 26.7857 6.19566 26.7857 7.14286C26.7857 8.09006 26.4094 8.99846 25.7397 9.66824C25.0699 10.338 24.1615 10.7143 23.2143 10.7143H1.78571C1.31211 10.7143 0.85791 10.9024 0.523023 11.2373C0.188137 11.5722 0 12.0264 0 12.5C0 12.9736 0.188137 13.4278 0.523023 13.7627C0.85791 14.0976 1.31211 14.2857 1.78571 14.2857H23.2143ZM42.8571 7.14286C39.7991 7.14286 36.8415 9.13616 35.8259 11.8795C35.6714 12.3211 35.6963 12.8058 35.8955 13.2292C36.0946 13.6527 36.452 13.981 36.8908 14.1436C37.3295 14.3063 37.8146 14.2902 38.2416 14.0988C38.6686 13.9075 39.0034 13.5562 39.1741 13.1205C39.6741 11.7701 41.2946 10.7143 42.8571 10.7143C43.8043 10.7143 44.7127 11.0906 45.3825 11.7603C46.0523 12.4301 46.4286 13.3385 46.4286 14.2857C46.4286 15.2329 46.0523 16.1413 45.3825 16.8111C44.7127 17.4809 43.8043 17.8571 42.8571 17.8571H3.57143C3.09783 17.8571 2.64362 18.0453 2.30874 18.3802C1.97385 18.7151 1.78571 19.1693 1.78571 19.6429C1.78571 20.1165 1.97385 20.5707 2.30874 20.9055C2.64362 21.2404 3.09783 21.4286 3.57143 21.4286H42.8571C44.7515 21.4286 46.5684 20.676 47.9079 19.3365C49.2475 17.9969 50 16.1801 50 14.2857C50 12.3913 49.2475 10.5745 47.9079 9.23495C46.5684 7.89541 44.7515 7.14286 42.8571 7.14286Z" fill="black"/>
</svg>
