<svg width="150" height="190" viewBox="0 0 150 190" fill="none" xmlns="http://www.w3.org/2000/svg">
<path d="M75 0.0786725C65.0372 -0.388594 55.0866 1.22948 45.7852 4.8293C36.4837 8.42913 28.0364 13.9314 20.9839 20.9839C13.9314 28.0364 8.42914 36.4837 4.82931 45.7852C1.22948 55.0866 -0.388594 65.0372 0.0786724 75C0.0786724 98.6002 18.809 121.826 28.1742 131.191C37.5393 140.556 75 190 75 190C75 190 112.461 140.556 121.826 131.191C131.191 121.826 149.921 98.6002 149.921 75C150.389 65.0372 148.771 55.0866 145.171 45.7852C141.571 36.4837 136.069 28.0364 129.016 20.9839C121.964 13.9314 113.516 8.42913 104.215 4.8293C94.9134 1.22948 84.9628 -0.388594 75 0.0786725ZM75 105.437C68.9802 105.437 63.0955 103.652 58.0902 100.307C53.0849 96.9628 49.1838 92.2092 46.8801 86.6476C44.5764 81.086 43.9736 74.9662 45.148 69.0621C46.3225 63.1579 49.2213 57.7346 53.4779 53.4779C57.7346 49.2213 63.1579 46.3225 69.0621 45.148C74.9662 43.9736 81.0861 44.5764 86.6477 46.8801C92.2093 49.1838 96.9628 53.0849 100.307 58.0902C103.652 63.0955 105.437 68.9802 105.437 75C105.437 78.997 104.65 82.9549 103.12 86.6476C101.59 90.3404 99.3484 93.6957 96.5221 96.522C93.6958 99.3484 90.3404 101.59 86.6477 103.12C82.9549 104.65 78.997 105.437 75 105.437Z" fill="#DFFE02"/>
</svg>
