<svg width="28" height="28" viewBox="0 0 28 28" fill="none" xmlns="http://www.w3.org/2000/svg">
<path d="M14.0003 0.666504C15.7684 0.666504 17.4641 1.36888 18.7144 2.61913C19.9646 3.86937 20.667 5.56506 20.667 7.33317C20.667 9.10128 19.9646 10.797 18.7144 12.0472C17.4641 13.2975 15.7684 13.9998 14.0003 13.9998C12.2322 13.9998 10.5365 13.2975 9.28628 12.0472C8.03604 10.797 7.33366 9.10128 7.33366 7.33317C7.33366 5.56506 8.03604 3.86937 9.28628 2.61913C10.5365 1.36888 12.2322 0.666504 14.0003 0.666504ZM14.0003 17.3332C21.367 17.3332 27.3337 20.3165 27.3337 23.9998V27.3332H0.666992V23.9998C0.666992 20.3165 6.63366 17.3332 14.0003 17.3332Z" fill="#1E1E1E"/>
</svg>
