<svg width="44" height="50" viewBox="0 0 44 50" fill="none" xmlns="http://www.w3.org/2000/svg">
<path d="M20.5664 0.576172L6.05469 16.543C5.67383 16.9531 5.46875 17.5 5.46875 18.0566C5.46875 19.3066 6.47461 20.3125 7.72461 20.3125H10.1562L2.98828 27.4805C2.57812 27.8906 2.34375 28.457 2.34375 29.043C2.34375 30.2637 3.33008 31.25 4.55078 31.25H7.8125L0.527344 39.9902C0.185547 40.4004 0 40.918 0 41.4551C0 42.7246 1.02539 43.75 2.29492 43.75H18.75V46.875C18.75 48.6035 20.1465 50 21.875 50C23.6035 50 25 48.6035 25 46.875V43.75H41.4551C42.7246 43.75 43.75 42.7246 43.75 41.4551C43.75 40.918 43.5645 40.4004 43.2227 39.9902L35.9375 31.25H39.1992C40.4199 31.25 41.4062 30.2637 41.4062 29.043C41.4062 28.457 41.1719 27.8906 40.7617 27.4805L33.5938 20.3125H36.0254C37.2656 20.3125 38.2812 19.3066 38.2812 18.0566C38.2812 17.5 38.0762 16.9531 37.6953 16.543L23.1836 0.576172C22.8516 0.205078 22.373 0 21.875 0C21.377 0 20.8984 0.205078 20.5664 0.576172Z" fill="black"/>
</svg>
