
<svg width="200" height="125" viewBox="0 0 200 125" fill="none" xmlns="http://www.w3.org/2000/svg">

<path d="M199.461 116.211L149.461 3.71094C148.97 2.60636 148.169 1.66789 147.155 1.00924C146.142 0.350583 144.959 1.44695e-05 143.75 0H56.25C55.0411 1.44695e-05 53.8583 0.350583 52.8446 1.00924C51.831 1.66789 51.0301 2.60636 50.539 3.71094V3.80469L0.53899 116.211C0.11593 117.163 -0.062654 118.205 0.0194631 119.243C0.10158 120.281 0.441796 121.282 1.0092 122.155C1.5766 123.029 2.3532 123.746 3.26844 124.243C4.18369 124.74 5.20855 125 6.24993 125H193.75C194.791 125 195.816 124.74 196.732 124.243C197.647 123.746 198.423 123.029 198.991 122.155C199.558 121.282 199.898 120.281 199.981 119.243C200.063 118.205 199.884 117.163 199.461 116.211ZM50 112.5H15.8671L50 35.7032V112.5ZM62.5 112.5V35.7032L96.6328 112.5H62.5Z" fill="black"/>
</svg>
