<svg width="34" height="24" viewBox="0 0 34 24" fill="none" xmlns="http://www.w3.org/2000/svg">
<path d="M24.5 2V3.25M24.5 8.25V9.5M24.5 14.5V15.75M24.5 20.75V22M9.5 13.25H18.25M9.5 17H14.5M2.625 0.75C1.59 0.75 0.75 1.59 0.75 2.625V7.66833C1.51124 8.10663 2.14354 8.73779 2.5832 9.49825C3.02285 10.2587 3.25434 11.1216 3.25434 12C3.25434 12.8784 3.02285 13.7413 2.5832 14.5018C2.14354 15.2622 1.51124 15.8934 0.75 16.3317V21.375C0.75 22.41 1.59 23.25 2.625 23.25H31.375C32.41 23.25 33.25 22.41 33.25 21.375V16.3317C32.4888 15.8934 31.8565 15.2622 31.4168 14.5018C30.9771 13.7413 30.7457 12.8784 30.7457 12C30.7457 11.1216 30.9771 10.2587 31.4168 9.49825C31.8565 8.73779 32.4888 8.10663 33.25 7.66833V2.625C33.25 1.59 32.41 0.75 31.375 0.75H2.625Z" stroke="#1E1E1E" stroke-width="1.5" stroke-linecap="round" stroke-linejoin="round"/>
</svg>
